<svg width="1478" height="169" viewBox="0 0 1478 169" fill="none" xmlns="http://www.w3.org/2000/svg">
<g clip-path="url(#clip0_5_6)">
<path d="M62.6707 9.78429C79.374 9.78429 98.4558 16.0972 107.556 24.7958L104.736 0.442306L107.77 0L124.032 94.8271C128.888 103.916 131.353 114.097 131.194 124.408C131.194 152.26 108.478 168.343 80.2292 168.343C28.4089 168.343 21.9014 121.151 24.9347 99.612L1.77723 116.366L0 114.02L55.7355 65.9032C42.0655 57.419 31.6828 47.6347 31.6828 32.8377C31.6561 16.0972 45.9674 9.78429 62.6707 9.78429ZM50.7379 77.001C25.3489 100.711 33.607 164.872 77.6369 164.872C99.752 164.872 114.491 147.689 114.491 127.021C114.491 95.4839 83.9173 82.8715 59.8512 68.5168L50.7379 77.001ZM86.9506 38.9361L88.9149 41.3219L70.6883 58.2902C87.3916 64.8175 106.687 72.4305 118.794 87.442C117.711 82.2148 116.402 77.001 115.106 72.6986C103.4 31.3767 76.5144 13.7248 57.6464 13.7248C45.9273 13.7248 37.255 20.4264 37.255 32.4892C37.255 44.2303 50.2702 50.1009 66.5325 56.6148L86.9506 38.9361Z" fill="white"/>
<path d="M176.734 59.3758H205.571L197.553 40.6115L200.373 39.2712L249.814 131.284L247.222 132.798C247.222 132.798 220.924 85.6996 215.325 78.0866C206.653 66.1176 197.326 62.8606 183.255 62.8606H176.761V161.816H207.335C214.484 161.816 221.205 161.601 225.762 161.173C239.204 160.301 248.959 159.216 253.302 135.506C256.99 115.924 261.106 73.0872 261.106 73.0872L264.58 73.3017L255.039 165.301H137.702V162.272C137.702 162.272 147.67 162.057 150.49 161.186C155.474 159.846 157.171 156.83 157.866 152.702C158.436 148.667 158.651 144.59 158.508 140.518V37.8504C158.651 33.7783 158.436 29.7014 157.866 25.667C157.211 21.5388 155.474 18.4829 150.49 17.1828C147.67 16.3116 137.702 16.0971 137.702 16.0971V13.0546H241.997L271.929 75.9153L268.883 77.4299L259.783 58.2902C248.719 35.6657 233.98 18.7107 212.72 17.1828C208.176 16.7539 202.965 16.526 198.195 16.526H176.734V59.3758Z" fill="white"/>
<path d="M300.111 59.3758H328.948L320.93 40.6115L323.75 39.2712L373.258 131.444L370.586 132.892C370.586 132.892 344.342 85.6996 338.703 78.0866C330.03 66.1176 320.716 62.8606 306.632 62.8606H300.125V161.816H330.698C337.861 161.816 344.582 161.601 349.125 161.173C362.568 160.301 372.336 159.216 376.666 135.506C380.354 115.924 384.483 73.0872 384.483 73.0872L387.944 73.3017L378.403 165.301H261.079V162.272C261.079 162.272 271.048 162.057 273.867 161.186C278.865 159.846 280.548 156.83 281.243 152.702C281.825 148.668 282.044 144.591 281.898 140.518V37.8504C282.044 33.7778 281.825 29.7002 281.243 25.667C280.588 21.5388 278.865 18.4829 273.867 17.1828C271.048 16.3116 261.079 16.0971 261.079 16.0971V13.0546H365.374L395.307 75.9153L392.273 77.4299L383.16 58.2902C372.109 35.6657 357.357 18.7107 336.11 17.1828C331.554 16.7539 326.342 16.526 321.572 16.526H300.111V59.3758Z" fill="white"/>
<path d="M431.947 9.78429C448.65 9.78429 467.732 16.0972 476.832 24.7958L474.012 0.442306L477.059 0L493.321 94.8271C498.167 103.92 500.627 114.099 500.47 124.408C500.47 152.26 477.754 168.343 449.519 168.343C397.685 168.343 391.178 121.151 394.224 99.612L371.013 116.366L369.249 114.02L424.985 65.9568C411.328 57.4726 400.932 47.6883 400.932 32.8913C400.946 16.0972 415.257 9.78429 431.947 9.78429ZM420.027 77.001C394.638 100.711 402.897 164.872 446.913 164.872C469.028 164.872 483.781 147.689 483.781 127.021C483.781 95.4839 453.193 82.8715 429.127 68.5168L420.027 77.001ZM456.24 38.9629L458.191 41.3486L439.978 58.317C456.668 64.8443 475.963 72.4573 488.083 87.4688C487.001 82.2416 485.705 77.0278 484.395 72.7254C472.69 31.4035 445.804 13.7516 426.936 13.7516C415.23 13.7516 406.558 20.4532 406.558 32.516C406.558 44.2571 419.56 50.1277 435.822 56.6416L456.24 38.9629Z" fill="white"/>
<path d="M697.262 11.3122C838.785 11.3122 923.839 51.5216 923.839 88.9565C923.839 134.849 839.467 167.043 728.557 167.043C591.123 167.043 510.158 125.721 510.158 88.9565C510.158 41.5497 587.06 11.3122 697.262 11.3122ZM661.891 20.4532C580.927 20.4532 548.309 39.8073 548.309 63.9463C548.309 106.139 627.242 157.902 761.964 157.902C848.366 157.902 886.477 136.806 886.477 111.581C886.383 72.216 806.127 20.4532 661.891 20.4532Z" stroke="white"/>
<path d="M981.859 16.0971L960.613 17.8396C960.826 43.721 961.254 61.5605 961.254 88.0853C961.254 118.537 964.728 161.387 1000.29 161.387C1035.84 161.387 1038.02 117.023 1038.02 81.7859V18.4829L1018.07 16.0971V13.0546H1062.53V16.0971C1062.53 16.0971 1052.55 16.3116 1049.73 17.1828C1044.53 18.5231 1043.05 21.5388 1042.14 25.667C1041.71 28.495 1041.71 33.7089 1041.5 37.8504V88.0853C1041.5 127.021 1034.33 169 993.137 169C958.394 169 943.041 150.517 943.041 93.527C943.041 76.3442 942.827 57.2045 942.613 35.2368C942.527 32.0316 942.237 28.8352 941.744 25.667C941.09 21.5388 939.353 18.4829 934.368 17.1828C931.549 16.3116 921.58 16.0971 921.58 16.0971V13.0546H981.859V16.0971Z" fill="white"/>
<path d="M1175.28 13.0546H1219.53V16.0971C1219.53 16.0971 1209.54 16.3116 1206.73 17.1828C1201.53 18.5231 1200.04 21.5388 1199.14 25.667C1198.71 28.2806 1198.71 33.0655 1198.48 36.9792L1198.71 165.301H1195.23L1091.15 23.7101V160.516L1113.55 162.272V165.314H1066.86V162.272C1066.86 162.272 1076.84 162.057 1079.66 161.186C1084.64 159.846 1086.34 156.83 1087.02 152.702C1087.6 148.668 1087.82 144.591 1087.68 140.518V41.5497C1087.68 35.8935 1087.68 28.495 1087.02 25.667C1086.38 21.5388 1084.64 18.4829 1079.66 17.1828C1076.84 16.3116 1066.86 16.0971 1066.86 16.0971V13.0546H1105.89L1195.23 134.42L1195.02 18.4829L1175.28 16.0971V13.0546Z" fill="white"/>
<path d="M1244.02 25.667C1243.38 21.5388 1241.86 18.4829 1236.66 17.1828C1233.84 16.3116 1223.86 16.0971 1223.86 16.0971V13.0546H1272.22C1339.03 13.0546 1365.25 47.6347 1365.25 86.1285C1365.25 129.018 1338.79 165.301 1272.22 165.301H1223.86V162.272C1223.86 162.272 1233.84 162.057 1236.66 161.186C1241.86 159.846 1243.34 156.83 1244.02 152.702C1244.68 149.874 1244.68 144.66 1244.89 140.518V37.8504C1244.68 33.7089 1244.68 28.495 1244.02 25.667ZM1272.22 161.816C1333.36 161.816 1347.05 122.022 1347.05 87.8709C1347.05 47.6615 1318.21 17.6251 1272.03 16.526H1263.13V161.816H1272.22Z" fill="white"/>
<path d="M1409.48 9.78429C1426.18 9.78429 1445.26 16.0972 1454.36 24.7958L1451.54 0.442306L1454.59 0L1470.85 94.8271C1475.7 103.92 1478.16 114.099 1478 124.408C1478 152.26 1455.28 168.343 1427.05 168.343C1375.21 168.343 1368.71 121.151 1371.75 99.612L1348.54 116.366L1346.81 113.967L1402.54 65.9032C1388.88 57.419 1378.49 47.6347 1378.49 32.8377C1378.48 16.0972 1392.83 9.78429 1409.48 9.78429ZM1397.56 77.001C1372.17 100.711 1380.43 164.872 1424.44 164.872C1446.56 164.872 1461.31 147.689 1461.31 127.021C1461.31 95.4839 1430.72 82.8715 1406.66 68.5168L1397.56 77.001ZM1433.77 38.9361L1435.72 41.3219L1417.51 58.2902C1434.2 64.8175 1453.49 72.4305 1465.61 87.442C1464.53 82.2148 1463.23 77.001 1461.92 72.6986C1450.22 31.3767 1423.33 13.7248 1404.47 13.7248C1392.76 13.7248 1384.09 20.4264 1384.09 32.4892C1384.09 44.2303 1397.09 50.1009 1413.35 56.6148L1433.77 38.9361Z" fill="white"/>
</g>
<defs>
<clipPath id="clip0_5_6">
<rect width="1478" height="169" fill="white"/>
</clipPath>
</defs>
</svg>
