<svg xmlns="http://www.w3.org/2000/svg" viewBox="0 0 444.17 53.26"><defs><style>.cls-1{fill:#fff;}</style></defs><g id="Layer_2" data-name="Layer 2"><g id="Layer_1-2" data-name="Layer 1"><path class="cls-1" d="M19.89,3.1c5.3,0,11.35,2,14.24,4.74L33.24.14l1-.14,5.16,30a19.18,19.18,0,0,1,2.27,9.36c0,8.12-7.22,13.9-16.17,13.9C9,53.26,7,38.33,7.91,31.52L.55,36.82,0,36.06,17.69,20.85c-4.34-2.68-7.64-5.78-7.64-10.46C10.05,5.09,14.59,3.1,19.89,3.1ZM16.1,24.36c-8,7.5-5.43,27.8,8.54,27.8,7,0,11.69-5.43,11.69-12,0-10-9.7-14-17.34-18.51Zm11.5-12,.61.76-5.78,5.36c5.3,2.07,11.43,4.48,15.28,9.22C37.37,26,37,24.36,36.54,23,32.83,9.91,24.29,4.33,18.31,4.33c-3.72,0-6.47,2.14-6.47,5.92s4.13,5.58,9.29,7.64Z"/><path class="cls-1" d="M56.08,18.79H80.65l-2.48-5.85.83-.48L94.69,41.57l-.83.48S85.54,27.11,83.75,24.71c-3.51-4.75-7-4.82-12.25-4.82H56.08V51.2H82.37c2.48,0,4.75-.07,6.19-.21,4.27-.27,7.5-1.92,10.26-8.19s6.53-19.4,6.53-19.4l1.11.2L97.85,52.3H43.69v-1A26.6,26.6,0,0,0,47.75,51a2.88,2.88,0,0,0,2.34-2.68,21.27,21.27,0,0,0,.21-3.85V12a21.27,21.27,0,0,0-.21-3.85,2.88,2.88,0,0,0-2.34-2.68,26.6,26.6,0,0,0-4.06-.35v-1H100.4L109.9,24l-1,.48L106,18.44c-3.51-7.15-8.19-12.52-14.93-13-1.45-.14-3.79-.21-6.26-.21H56.08Z"/><path class="cls-1" d="M120.21,18.79h24.57l-2.48-5.85.83-.48,15.69,29.11-.83.48s-8.32-14.94-10.11-17.34c-3.51-4.75-6.95-4.82-12.25-4.82H120.21V51.2H146.5c2.48,0,4.75-.07,6.19-.21,4.27-.27,7.51-1.92,10.26-8.19s6.54-19.4,6.54-19.4l1.1.2L162,52.3H107.83v-1a26.7,26.7,0,0,0,4.06-.35,2.9,2.9,0,0,0,2.34-2.68,22.32,22.32,0,0,0,.2-3.85V12a22.32,22.32,0,0,0-.2-3.85,2.9,2.9,0,0,0-2.34-2.68,26.7,26.7,0,0,0-4.06-.35v-1h56.7L174,24l-1,.48-2.89-6.06c-3.51-7.15-8.18-12.52-14.93-13-1.44-.14-3.78-.21-6.26-.21H120.21Z"/><path class="cls-1" d="M185.31,3.1c5.3,0,11.35,2,14.24,4.74l-.89-7.7,1-.14,5.16,30a19.18,19.18,0,0,1,2.27,9.36c0,8.12-7.22,13.9-16.17,13.9-16.45,0-18.51-14.93-17.55-21.74L166,36.82l-.55-.76,17.69-15.21c-4.34-2.68-7.64-5.78-7.64-10.46C175.47,5.09,180,3.1,185.31,3.1Zm-3.79,21.26c-8.05,7.5-5.43,27.8,8.54,27.8,7,0,11.69-5.43,11.69-12,0-10-9.7-14-17.34-18.51Zm11.5-12,.61.76-5.78,5.36c5.3,2.07,11.43,4.48,15.28,9.22-.34-1.65-.75-3.3-1.17-4.68C198.25,9.91,189.71,4.33,183.73,4.33c-3.72,0-6.47,2.14-6.47,5.92s4.13,5.58,9.29,7.64Z"/><path class="cls-1" d="M227.35,3.58c14.32,0,22.92,12.73,22.92,24.57,0,14.52-8.54,24.7-19.75,24.7-13.9,0-22.09-13.07-22.09-24.7C208.43,13.14,216.2,3.58,227.35,3.58Zm-3.58,2.89c-8.19,0-11.49,6.12-11.49,13.76,0,13.35,8,29.73,21.61,29.73,8.74,0,12.59-6.67,12.59-14.66C246.48,22.85,238.36,6.47,223.77,6.47Z"/><path class="cls-1" d="M288.94,27.18c3.09-11.08,7.5-23.12,7.5-23.12l6.12.07c-1.1,3-2.54,7.09-4.19,11.35.41,1,9.63,21.47,13.35,31.11,1.37,4.2-2,5.71-5.72,5.71H293.27c-6,0-7.5-4.82-7.5-9.77a28.52,28.52,0,0,1,.83-6c-1.65,3.79-7.43,16-16.59,16-7.7,0-8.32-5.85-8.32-10.81,0-.34,0-.69.13-.76-.41-1-9.22-21.81-13-30.41-1.86-4.48.62-6.54,5.37-6.47h13.55c5.78,0,9.22,3.44,7.23,9.56-4.34,13.22-12.94,37.72-4.34,37.72C281.16,51.41,287.49,31.52,288.94,27.18ZM266.3,21.54c4.61-14.45,6.81-16-1.17-16.31h-11c-1.93,0-3.65.27-4.41,1.31s-.48,2.34.55,4.61c3.37,7.36,9.36,21.68,11.7,27.25A117.45,117.45,0,0,1,266.3,21.54ZM298,17.27c-4.95,15-9.63,33.86-.2,33.86l8.32.07c3.65,0,6.13-1.45,4.2-5.23-3.16-8.12-10-23.74-12.39-28.84Z"/><path class="cls-1" d="M328.64,24.15c-3.23,12.12-9.43,28.22-9.43,28.22L313,52.3c1.1-3,2.68-7.16,4.47-11.35-.55-1.24-9.63-21.54-13.35-31.11-1.37-4.27,2-5.71,5.71-5.71h12.73c6,0,8,4.61,8,9.56a19.61,19.61,0,0,1-.48,4.06c2.34-4.88,7.77-14.17,15.75-14.17,7.71,0,8.33,5.85,8.33,10.8,0,.42,0,.9-.2,1.1.48,1.17,9.22,21.82,13,30.35,1.86,4.47-.55,6.54-5.3,6.47H348.12c-5.79,0-9.23-3.85-7.23-10C345.23,29.11,354,4.75,345.23,4.75,337.17,4.75,331.46,16.79,328.64,24.15ZM319.83,5.23h-10c-3.65,0-6.13,1.44-4.2,5.23,3.16,8.12,10,23.6,12.25,28.7C323.27,24.09,328.85,5.23,319.83,5.23Zm29.73,29.39c-3.51,10.66-6.81,16.24,1.17,16.58h11c1.93,0,3.65-.28,4.41-1.31s.48-2.34-.55-4.61c-3.38-7.36-9.43-21.81-11.7-27.32A122.31,122.31,0,0,1,349.56,34.62Z"/><path class="cls-1" d="M367.52,8.12a2.82,2.82,0,0,0-2.34-2.68,26.7,26.7,0,0,0-4.06-.35v-1h15.34c21.2,0,30.21,8.33,30.21,21.19s-11.83,27-30.21,27H361.12v-1a26.7,26.7,0,0,0,4.06-.35,2.82,2.82,0,0,0,2.34-2.68,31.19,31.19,0,0,0,.27-3.85V12A31.19,31.19,0,0,0,367.52,8.12Zm8.94,43.08c16,0,24.43-11.91,24.43-24.09,0-13.42-10.52-21.54-24.49-21.88h-2.83v46Z"/><path class="cls-1" d="M422.43,3.1c5.3,0,11.35,2,14.24,4.74l-.89-7.7,1-.14,5.16,30a19.18,19.18,0,0,1,2.27,9.36c0,8.12-7.22,13.9-16.17,13.9-16.44,0-18.51-14.93-17.54-21.74l-7.37,5.3-.55-.76,17.69-15.21c-4.34-2.68-7.64-5.78-7.64-10.46C412.59,5.09,417.13,3.1,422.43,3.1Zm-3.79,21.26c-8.05,7.5-5.43,27.8,8.54,27.8,7,0,11.7-5.43,11.7-12,0-10-9.71-14-17.35-18.51Zm11.5-12,.62.76L425,18.44c5.29,2.07,11.42,4.48,15.27,9.22-.34-1.65-.75-3.3-1.17-4.68C435.37,9.91,426.83,4.33,420.85,4.33c-3.72,0-6.47,2.14-6.47,5.92s4.13,5.58,9.29,7.64Z"/></g></g></svg>